<svg width="24" height="24" viewBox="0 0 24 24" fill="none" xmlns="http://www.w3.org/2000/svg">
<path d="M2 12.0601C2.00056 14.4561 2.85047 16.7733 4.39696 18.5953C5.94345 20.4173 8.08511 21.6245 10.437 22V14.9679H7.9V12.0601H10.44V9.84651C10.3839 9.32842 10.4419 8.80427 10.6098 8.31127C10.7777 7.81827 11.0515 7.36852 11.4116 6.99396C11.7718 6.6194 12.2095 6.32923 12.6936 6.14404C13.1778 5.95886 13.6965 5.8832 14.213 5.92246C14.963 5.93453 15.713 6.00195 16.453 6.12369V8.59786H15.189C14.9742 8.56955 14.7558 8.59017 14.5499 8.65821C14.3441 8.72624 14.1561 8.83995 13.9998 8.99093C13.8435 9.14191 13.7229 9.3263 13.647 9.53047C13.571 9.73464 13.5416 9.95337 13.561 10.1705V12.0601H16.332L15.889 14.9689H13.561V22C15.4486 21.6998 17.2112 20.8618 18.6402 19.585C20.0691 18.3082 21.1045 16.6461 21.6238 14.7957C22.143 12.9452 22.1244 10.9837 21.5702 9.14354C21.0159 7.30335 19.9492 5.66149 18.4964 4.41235C17.0435 3.1632 15.2653 2.35909 13.3724 2.09521C11.4794 1.83132 9.55092 2.11872 7.81525 2.92338C6.07958 3.72804 4.60942 5.01625 3.5788 6.63551C2.54819 8.25476 2.0003 10.1372 2 12.0601Z" fill="#B6B6B6"/>
</svg>
