<svg width="24" height="24" viewBox="0 0 24 24" fill="none" xmlns="http://www.w3.org/2000/svg">
<path d="M21.593 7.20301C21.4791 6.78041 21.2565 6.39501 20.9474 6.08518C20.6382 5.77534 20.2533 5.55187 19.831 5.43701C18.265 5.00701 12 5.00001 12 5.00001C12 5.00001 5.736 4.99301 4.169 5.40401C3.74692 5.52415 3.36282 5.75078 3.05357 6.06214C2.74431 6.3735 2.52029 6.75913 2.403 7.18201C1.99 8.74801 1.986 11.996 1.986 11.996C1.986 11.996 1.982 15.26 2.392 16.81C2.622 17.667 3.297 18.344 4.155 18.575C5.737 19.005 11.985 19.012 11.985 19.012C11.985 19.012 18.25 19.019 19.816 18.609C20.2385 18.4943 20.6237 18.2714 20.9337 17.9622C21.2436 17.653 21.4674 17.2682 21.583 16.846C21.997 15.281 22 12.034 22 12.034C22 12.034 22.02 8.76901 21.593 7.20301ZM9.996 15.005L10.001 9.00501L15.208 12.01L9.996 15.005Z" fill="#B6B6B6"/>
</svg>
